<svg xmlns="http://www.w3.org/2000/svg" width="27" height="24" clip-rule="evenodd" fill-rule="evenodd"><path d="M13.5 0C20.95 0 27 5.377 27 12s-6.05 12-13.5 12S0 18.623 0 12 6.05 0 13.5 0m2.877 16h-5.755c.614 2.46 1.62 4.114 2.878 5.744 1.343-1.74 2.296-3.41 2.877-5.744m-8.052 0H3.187c1.39 2.825 4.167 4.972 7.6 5.716C9.607 19.983 8.78 18.058 8.325 16m15.488 0h-5.138c-.44 1.988-1.232 3.887-2.447 5.694 3.39-.763 6.207-2.895 7.585-5.694M8.057 10H2.475c-.3 1.313-.3 2.685 0 4h5.53c-.135-1.33-.114-2.672.052-4m8.62 0h-6.354c-.186 1.326-.208 2.672-.06 4h6.473c.15-1.328.124-2.673-.06-4m7.85 0H18.94c.166 1.328.186 2.67.054 4h5.53c.292-1.285.306-2.648 0-4M10.85 2.27C7.388 3.004 4.587 5.158 3.187 8h5.235c.49-2.042 1.325-3.985 2.428-5.73m2.65-.047C12.273 3.993 11.35 5.676 10.727 8h5.543c-.6-2.246-1.503-3.948-2.77-5.777m2.663.07c1.14 1.81 1.95 3.76 2.414 5.707h5.236c-1.386-2.816-4.232-4.958-7.65-5.708" fill="#fff"/></svg>